<svg width="172" height="44" viewBox="0 0 172 44" fill="none" xmlns="http://www.w3.org/2000/svg">
  <rect width="172" height="44" rx="12" fill="white"/>
  <rect x="12" y="10" width="10" height="10" fill="#F25022"/>
  <rect x="24" y="10" width="10" height="10" fill="#7FBA00"/>
  <rect x="12" y="22" width="10" height="10" fill="#00A4EF"/>
  <rect x="24" y="22" width="10" height="10" fill="#FFB900"/>
  <path d="M49.6 15.7H52.4L56.35 25.32L60.33 15.7H63.12V28H60.96V19.64L57.49 28H55.15L51.72 19.64V28H49.6V15.7Z" fill="#111827"/>
  <path d="M65.48 18.98H67.64V28H65.48V18.98ZM66.56 15.54C67.33 15.54 67.92 16.11 67.92 16.84C67.92 17.6 67.33 18.16 66.56 18.16C65.81 18.16 65.2 17.6 65.2 16.84C65.2 16.11 65.81 15.54 66.56 15.54Z" fill="#111827"/>
  <path d="M73.83 18.72C76.44 18.72 78.37 20.42 78.8 22.95H76.68C76.33 21.62 75.34 20.78 73.85 20.78C72.03 20.78 70.88 22.14 70.88 24.49C70.88 26.87 72.05 28.22 73.89 28.22C75.33 28.22 76.32 27.38 76.7 26.06H78.82C78.34 28.58 76.42 30.28 73.84 30.28C70.63 30.28 68.7 28.09 68.7 24.49C68.7 20.92 70.67 18.72 73.83 18.72Z" fill="#111827"/>
  <path d="M80.39 15.7H82.55V20.22C83.12 19.25 84.22 18.72 85.52 18.72C87.74 18.72 89.12 20.16 89.12 22.73V28H86.96V23.16C86.96 21.63 86.18 20.8 84.82 20.8C83.39 20.8 82.55 21.73 82.55 23.29V28H80.39V15.7Z" fill="#111827"/>
  <path d="M94.48 18.72C97.32 18.72 99.09 20.61 99.09 23.55V24.31H92.06C92.18 26.04 93.16 27.05 94.76 27.05C95.89 27.05 96.68 26.56 96.98 25.73H99.01C98.52 27.78 96.82 29.14 94.73 29.14C91.78 29.14 89.92 27.24 89.92 23.94C89.92 20.66 91.82 18.72 94.48 18.72ZM92.1 22.82H96.92C96.83 21.32 95.89 20.44 94.48 20.44C93.11 20.44 92.2 21.3 92.1 22.82Z" fill="#111827"/>
  <path d="M100.72 18.98H102.8V20.46C103.33 19.43 104.28 18.82 105.55 18.82H106.14V20.87H105.38C103.82 20.87 102.88 21.72 102.88 23.5V28H100.72V18.98Z" fill="#111827"/>
</svg>
