<svg width="152" height="44" viewBox="0 0 152 44" fill="none" xmlns="http://www.w3.org/2000/svg">
  <rect width="152" height="44" rx="12" fill="white"/>
  <circle cx="22" cy="22" r="12.5" stroke="#0E68BC" stroke-width="2"/>
  <circle cx="22" cy="22" r="3.2" fill="#0E68BC"/>
  <path d="M22 10.5V18.2" stroke="#0E68BC" stroke-width="2" stroke-linecap="round"/>
  <path d="M22 25.8V33.5" stroke="#0E68BC" stroke-width="2" stroke-linecap="round"/>
  <path d="M10.5 22H18.2" stroke="#0E68BC" stroke-width="2" stroke-linecap="round"/>
  <path d="M25.8 22H33.5" stroke="#0E68BC" stroke-width="2" stroke-linecap="round"/>
  <path d="M14.2 14.2L18.9 18.9" stroke="#0E68BC" stroke-width="1.8" stroke-linecap="round"/>
  <path d="M25.1 25.1L29.8 29.8" stroke="#0E68BC" stroke-width="1.8" stroke-linecap="round"/>
  <path d="M29.8 14.2L25.1 18.9" stroke="#0E68BC" stroke-width="1.8" stroke-linecap="round"/>
  <path d="M18.9 25.1L14.2 29.8" stroke="#0E68BC" stroke-width="1.8" stroke-linecap="round"/>
  <path d="M48.8 16.2H52.23C55.55 16.2 57.61 18.52 57.61 22C57.61 25.49 55.55 27.8 52.23 27.8H48.8V16.2ZM52.12 25.83C54.11 25.83 55.41 24.38 55.41 22C55.41 19.64 54.11 18.18 52.12 18.18H51V25.83H52.12Z" fill="#111827"/>
  <path d="M63.29 18.72C66.07 18.72 67.95 20.63 67.95 23.93C67.95 27.22 66.07 29.14 63.29 29.14C60.5 29.14 58.62 27.22 58.62 23.93C58.62 20.63 60.5 18.72 63.29 18.72ZM63.29 27.22C64.76 27.22 65.79 26.04 65.79 23.93C65.79 21.82 64.76 20.64 63.29 20.64C61.8 20.64 60.78 21.82 60.78 23.93C60.78 26.04 61.8 27.22 63.29 27.22Z" fill="#111827"/>
  <path d="M68.78 18.98H71.04L72.98 26.06L75.01 18.98H77.06L79.1 26.06L81.01 18.98H83.24L80.37 28H77.99L76.03 21.31L74.03 28H71.65L68.78 18.98Z" fill="#111827"/>
  <path d="M84.29 18.98H86.37V20.39C86.96 19.32 88.04 18.72 89.42 18.72C91.64 18.72 93.03 20.18 93.03 22.73V28H90.87V23.21C90.87 21.66 90.07 20.8 88.69 20.8C87.26 20.8 86.45 21.74 86.45 23.35V28H84.29V18.98Z" fill="#111827"/>
  <path d="M95.06 15.7H97.22V28H95.06V15.7Z" fill="#111827"/>
  <path d="M103.5 18.72C106.28 18.72 108.16 20.63 108.16 23.93C108.16 27.22 106.28 29.14 103.5 29.14C100.71 29.14 98.83 27.22 98.83 23.93C98.83 20.63 100.71 18.72 103.5 18.72ZM103.5 27.22C104.97 27.22 106 26.04 106 23.93C106 21.82 104.97 20.64 103.5 20.64C102.01 20.64 100.99 21.82 100.99 23.93C100.99 26.04 102.01 27.22 103.5 27.22Z" fill="#111827"/>
  <path d="M112.94 18.72C115.23 18.72 116.7 19.9 116.7 21.87V28H114.62V26.73C114.09 27.6 113.07 28.18 111.72 28.18C109.84 28.18 108.59 27.09 108.59 25.39C108.59 23.67 109.92 22.67 112.27 22.52L114.57 22.39V21.91C114.57 20.97 113.91 20.42 112.81 20.42C111.8 20.42 111.14 20.85 111 21.58H108.97C109.06 19.88 110.57 18.72 112.94 18.72ZM112.34 26.45C113.61 26.45 114.57 25.58 114.57 24.4V23.79L112.57 23.92C111.44 23.99 110.86 24.43 110.86 25.2C110.86 25.99 111.48 26.45 112.34 26.45Z" fill="#111827"/>
  <path d="M122.33 18.72C123.67 18.72 124.74 19.31 125.33 20.34V15.7H127.49V28H125.43V26.47C124.87 27.5 123.78 28.16 122.34 28.16C119.97 28.16 118.38 26.26 118.38 23.46C118.38 20.62 119.95 18.72 122.33 18.72ZM122.94 26.2C124.4 26.2 125.37 25.06 125.37 23.45C125.37 21.83 124.4 20.69 122.94 20.69C121.48 20.69 120.54 21.82 120.54 23.45C120.54 25.06 121.49 26.2 122.94 26.2Z" fill="#111827"/>
</svg>
