<svg width="1400" height="980" viewBox="0 0 1400 980" fill="none" xmlns="http://www.w3.org/2000/svg">
  <rect width="1400" height="980" rx="36" fill="#090909"/>
  <rect x="20" y="20" width="1360" height="940" rx="28" fill="#0D0D0D" stroke="#2A2A2A"/>
  <rect x="48" y="48" width="1304" height="72" rx="22" fill="#111111"/>
  <rect x="76" y="76" width="188" height="14" rx="7" fill="#F3F3F3"/>
  <rect x="1086" y="68" width="234" height="30" rx="15" fill="#F3F3F3"/>
  <text x="1142" y="88" fill="#0B0B0B" font-family="Arial, sans-serif" font-size="13" font-weight="700" letter-spacing="1.2">EXPORT JSONL</text>
  <rect x="48" y="156" width="844" height="756" rx="28" fill="#121212" stroke="#2D2D2D"/>
  <rect x="924" y="156" width="428" height="756" rx="28" fill="#121212" stroke="#2D2D2D"/>
  <text x="88" y="198" fill="#7E7E7E" font-family="Arial, sans-serif" font-size="13" font-weight="700" letter-spacing="1.7">AUDIT LEDGER</text>
  <text x="88" y="238" fill="#F3F3F3" font-family="Arial, sans-serif" font-size="30" font-weight="700">Recent events</text>
  <rect x="88" y="286" width="764" height="58" rx="18" fill="#171717"/>
  <text x="118" y="323" fill="#7E7E7E" font-family="Arial, sans-serif" font-size="12" font-weight="700" letter-spacing="1.5">TIME</text>
  <text x="308" y="323" fill="#7E7E7E" font-family="Arial, sans-serif" font-size="12" font-weight="700" letter-spacing="1.5">ACTION</text>
  <text x="464" y="323" fill="#7E7E7E" font-family="Arial, sans-serif" font-size="12" font-weight="700" letter-spacing="1.5">PHASE</text>
  <text x="604" y="323" fill="#7E7E7E" font-family="Arial, sans-serif" font-size="12" font-weight="700" letter-spacing="1.5">HASH</text>
  <text x="756" y="323" fill="#7E7E7E" font-family="Arial, sans-serif" font-size="12" font-weight="700" letter-spacing="1.5">RED.</text>
  <rect x="88" y="364" width="764" height="82" rx="20" fill="#171717"/>
  <rect x="88" y="462" width="764" height="82" rx="20" fill="#171717"/>
  <rect x="88" y="560" width="764" height="82" rx="20" fill="#171717"/>
  <rect x="88" y="658" width="764" height="82" rx="20" fill="#171717"/>
  <text x="118" y="412" fill="#BEBEBE" font-family="Arial, sans-serif" font-size="14">2026-03-09 20:42</text>
  <text x="308" y="412" fill="#F3F3F3" font-family="Arial, sans-serif" font-size="14" font-weight="700">BLOCK</text>
  <text x="464" y="412" fill="#BEBEBE" font-family="Arial, sans-serif" font-size="14">PRE_LLM</text>
  <text x="604" y="412" fill="#BEBEBE" font-family="Courier New, monospace" font-size="14">8dc921...a2f331</text>
  <text x="756" y="412" fill="#BEBEBE" font-family="Arial, sans-serif" font-size="14">yes</text>
  <text x="118" y="510" fill="#BEBEBE" font-family="Arial, sans-serif" font-size="14">2026-03-09 20:40</text>
  <text x="308" y="510" fill="#F3F3F3" font-family="Arial, sans-serif" font-size="14" font-weight="700">ALLOW</text>
  <text x="464" y="510" fill="#BEBEBE" font-family="Arial, sans-serif" font-size="14">POST_LLM</text>
  <text x="604" y="510" fill="#BEBEBE" font-family="Courier New, monospace" font-size="14">af33f1...dd927a</text>
  <text x="756" y="510" fill="#BEBEBE" font-family="Arial, sans-serif" font-size="14">no</text>
  <text x="118" y="608" fill="#BEBEBE" font-family="Arial, sans-serif" font-size="14">2026-03-09 20:38</text>
  <text x="308" y="608" fill="#F3F3F3" font-family="Arial, sans-serif" font-size="14" font-weight="700">FLAG</text>
  <text x="464" y="608" fill="#BEBEBE" font-family="Arial, sans-serif" font-size="14">PRE_LLM</text>
  <text x="604" y="608" fill="#BEBEBE" font-family="Courier New, monospace" font-size="14">21ce20...e94bb2</text>
  <text x="756" y="608" fill="#BEBEBE" font-family="Arial, sans-serif" font-size="14">yes</text>
  <text x="118" y="706" fill="#BEBEBE" font-family="Arial, sans-serif" font-size="14">2026-03-09 20:31</text>
  <text x="308" y="706" fill="#F3F3F3" font-family="Arial, sans-serif" font-size="14" font-weight="700">ALLOW</text>
  <text x="464" y="706" fill="#BEBEBE" font-family="Arial, sans-serif" font-size="14">POST_LLM</text>
  <text x="604" y="706" fill="#BEBEBE" font-family="Courier New, monospace" font-size="14">1a9220...439bee</text>
  <text x="756" y="706" fill="#BEBEBE" font-family="Arial, sans-serif" font-size="14">no</text>
  <text x="964" y="198" fill="#7E7E7E" font-family="Arial, sans-serif" font-size="13" font-weight="700" letter-spacing="1.7">EVIDENCE PACKS</text>
  <text x="964" y="238" fill="#F3F3F3" font-family="Arial, sans-serif" font-size="30" font-weight="700">Regime-ready outputs</text>
  <rect x="964" y="286" width="348" height="142" rx="22" fill="#171717"/>
  <rect x="964" y="452" width="348" height="142" rx="22" fill="#171717"/>
  <rect x="964" y="618" width="348" height="210" rx="22" fill="#090909" stroke="#2D2D2D"/>
  <text x="996" y="326" fill="#7E7E7E" font-family="Arial, sans-serif" font-size="12" font-weight="700" letter-spacing="1.4">EU AI ACT</text>
  <text x="996" y="374" fill="#F3F3F3" font-family="Arial, sans-serif" font-size="22" font-weight="700">Generated pack</text>
  <text x="996" y="492" fill="#7E7E7E" font-family="Arial, sans-serif" font-size="12" font-weight="700" letter-spacing="1.4">GDPR</text>
  <text x="996" y="540" fill="#F3F3F3" font-family="Arial, sans-serif" font-size="22" font-weight="700">Exportable event history</text>
  <text x="996" y="658" fill="#7E7E7E" font-family="Arial, sans-serif" font-size="12" font-weight="700" letter-spacing="1.4">DEPLOYMENT</text>
  <text x="996" y="706" fill="#F3F3F3" font-family="Arial, sans-serif" font-size="20" font-weight="700">SaaS</text>
  <text x="1076" y="706" fill="#F3F3F3" font-family="Arial, sans-serif" font-size="20" font-weight="700">VPC</text>
  <text x="1148" y="706" fill="#F3F3F3" font-family="Arial, sans-serif" font-size="20" font-weight="700">On-prem</text>
  <text x="996" y="756" fill="#9E9E9E" font-family="Arial, sans-serif" font-size="15">Keep the operating model consistent as deployment posture changes.</text>
</svg>
