<svg width="1600" height="1100" viewBox="0 0 1600 1100" fill="none" xmlns="http://www.w3.org/2000/svg">
  <rect width="1600" height="1100" rx="40" fill="#090909"/>
  <rect x="24" y="24" width="1552" height="1052" rx="30" fill="#0D0D0D" stroke="#2A2A2A"/>
  <rect x="60" y="60" width="152" height="980" rx="24" fill="#111111"/>
  <rect x="252" y="60" width="1288" height="84" rx="24" fill="#111111"/>
  <rect x="96" y="106" width="78" height="10" rx="5" fill="#F3F3F3"/>
  <rect x="96" y="156" width="80" height="16" rx="8" fill="#1F1F1F"/>
  <rect x="96" y="204" width="80" height="16" rx="8" fill="#1A1A1A"/>
  <rect x="96" y="252" width="80" height="16" rx="8" fill="#1A1A1A"/>
  <rect x="96" y="300" width="80" height="16" rx="8" fill="#1A1A1A"/>
  <rect x="96" y="348" width="80" height="16" rx="8" fill="#1A1A1A"/>
  <rect x="288" y="94" width="180" height="16" rx="8" fill="#F3F3F3"/>
  <rect x="1320" y="88" width="172" height="28" rx="14" fill="#F3F3F3"/>
  <text x="1370" y="107" fill="#0B0B0B" font-family="Arial, sans-serif" font-size="13" font-weight="700" letter-spacing="1.2">PUBLISH</text>
  <rect x="252" y="184" width="820" height="420" rx="28" fill="#121212" stroke="#2D2D2D"/>
  <rect x="1104" y="184" width="436" height="420" rx="28" fill="#121212" stroke="#2D2D2D"/>
  <rect x="252" y="640" width="622" height="348" rx="28" fill="#121212" stroke="#2D2D2D"/>
  <rect x="906" y="640" width="634" height="348" rx="28" fill="#121212" stroke="#2D2D2D"/>
  <text x="292" y="226" fill="#7E7E7E" font-family="Arial, sans-serif" font-size="13" font-weight="700" letter-spacing="1.7">CONTROL CENTER</text>
  <text x="292" y="268" fill="#F3F3F3" font-family="Arial, sans-serif" font-size="34" font-weight="700">Guardrail overview</text>
  <rect x="292" y="304" width="156" height="30" rx="15" fill="#1A1A1A"/>
  <text x="328" y="324" fill="#BEBEBE" font-family="Arial, sans-serif" font-size="12" font-weight="700" letter-spacing="1.5">PRE_LLM + POST_LLM</text>
  <rect x="468" y="304" width="104" height="30" rx="15" fill="#1A1A1A"/>
  <text x="498" y="324" fill="#BEBEBE" font-family="Arial, sans-serif" font-size="12" font-weight="700" letter-spacing="1.5">MONITOR</text>
  <rect x="292" y="368" width="222" height="132" rx="22" fill="#171717"/>
  <rect x="536" y="368" width="222" height="132" rx="22" fill="#171717"/>
  <rect x="780" y="368" width="252" height="132" rx="22" fill="#171717"/>
  <text x="322" y="404" fill="#7E7E7E" font-family="Arial, sans-serif" font-size="12" font-weight="700" letter-spacing="1.4">PHASES</text>
  <text x="322" y="462" fill="#F3F3F3" font-family="Arial, sans-serif" font-size="34" font-weight="700">PRE / POST</text>
  <text x="566" y="404" fill="#7E7E7E" font-family="Arial, sans-serif" font-size="12" font-weight="700" letter-spacing="1.4">ACTIONS</text>
  <text x="566" y="462" fill="#F3F3F3" font-family="Arial, sans-serif" font-size="34" font-weight="700">Block / Flag</text>
  <text x="810" y="404" fill="#7E7E7E" font-family="Arial, sans-serif" font-size="12" font-weight="700" letter-spacing="1.4">DEPLOYMENT</text>
  <text x="810" y="446" fill="#F3F3F3" font-family="Arial, sans-serif" font-size="22" font-weight="700">SaaS / VPC / On-prem</text>
  <rect x="292" y="532" width="740" height="40" rx="20" fill="#171717"/>
  <rect x="312" y="544" width="164" height="16" rx="8" fill="#F3F3F3"/>
  <rect x="820" y="544" width="192" height="16" rx="8" fill="#2C2C2C"/>
  <text x="1144" y="226" fill="#7E7E7E" font-family="Arial, sans-serif" font-size="13" font-weight="700" letter-spacing="1.7">LIVE FEED</text>
  <text x="1144" y="268" fill="#F3F3F3" font-family="Arial, sans-serif" font-size="30" font-weight="700">Recent decisions</text>
  <rect x="1144" y="320" width="356" height="58" rx="18" fill="#171717"/>
  <rect x="1144" y="394" width="356" height="58" rx="18" fill="#171717"/>
  <rect x="1144" y="468" width="356" height="58" rx="18" fill="#171717"/>
  <text x="1174" y="354" fill="#F3F3F3" font-family="Arial, sans-serif" font-size="14" font-weight="700">BLOCK</text>
  <text x="1298" y="354" fill="#9E9E9E" font-family="Arial, sans-serif" font-size="14">prompt injection pattern</text>
  <text x="1174" y="428" fill="#F3F3F3" font-family="Arial, sans-serif" font-size="14" font-weight="700">ALLOW</text>
  <text x="1298" y="428" fill="#9E9E9E" font-family="Arial, sans-serif" font-size="14">customer support prompt</text>
  <text x="1174" y="502" fill="#F3F3F3" font-family="Arial, sans-serif" font-size="14" font-weight="700">FLAG</text>
  <text x="1298" y="502" fill="#9E9E9E" font-family="Arial, sans-serif" font-size="14">PII output review</text>
  <rect x="1144" y="546" width="356" height="22" rx="11" fill="#171717"/>
  <text x="292" y="682" fill="#7E7E7E" font-family="Arial, sans-serif" font-size="13" font-weight="700" letter-spacing="1.7">INTEGRATION</text>
  <text x="292" y="724" fill="#F3F3F3" font-family="Arial, sans-serif" font-size="30" font-weight="700">One runtime path</text>
  <rect x="292" y="760" width="542" height="186" rx="22" fill="#090909" stroke="#2D2D2D"/>
  <text x="326" y="808" fill="#8D8D8D" font-family="Courier New, monospace" font-size="18">const reviewed = await umai.guard({</text>
  <text x="326" y="844" fill="#8D8D8D" font-family="Courier New, monospace" font-size="18">  phase: ["PRE_LLM", "POST_LLM"],</text>
  <text x="326" y="880" fill="#8D8D8D" font-family="Courier New, monospace" font-size="18">  project: "customer-support"</text>
  <text x="326" y="916" fill="#8D8D8D" font-family="Courier New, monospace" font-size="18">});</text>
  <text x="946" y="682" fill="#7E7E7E" font-family="Arial, sans-serif" font-size="13" font-weight="700" letter-spacing="1.7">EVIDENCE</text>
  <text x="946" y="724" fill="#F3F3F3" font-family="Arial, sans-serif" font-size="30" font-weight="700">Audit-ready outputs</text>
  <rect x="946" y="770" width="250" height="148" rx="22" fill="#171717"/>
  <rect x="1214" y="770" width="286" height="148" rx="22" fill="#171717"/>
  <text x="978" y="812" fill="#7E7E7E" font-family="Arial, sans-serif" font-size="12" font-weight="700" letter-spacing="1.5">LEDGER</text>
  <text x="978" y="860" fill="#F3F3F3" font-family="Arial, sans-serif" font-size="22" font-weight="700">Hash chained</text>
  <text x="1246" y="812" fill="#7E7E7E" font-family="Arial, sans-serif" font-size="12" font-weight="700" letter-spacing="1.5">PACKS</text>
  <text x="1246" y="860" fill="#F3F3F3" font-family="Arial, sans-serif" font-size="22" font-weight="700">EU AI Act / GDPR</text>
</svg>
