<svg width="1400" height="980" viewBox="0 0 1400 980" fill="none" xmlns="http://www.w3.org/2000/svg">
  <rect width="1400" height="980" rx="36" fill="#090909"/>
  <rect x="20" y="20" width="1360" height="940" rx="28" fill="#0D0D0D" stroke="#2A2A2A"/>
  <rect x="48" y="48" width="1304" height="72" rx="22" fill="#111111"/>
  <rect x="76" y="76" width="204" height="14" rx="7" fill="#F3F3F3"/>
  <rect x="1116" y="68" width="204" height="30" rx="15" fill="#F3F3F3"/>
  <text x="1178" y="88" fill="#0B0B0B" font-family="Arial, sans-serif" font-size="13" font-weight="700" letter-spacing="1.2">ENFORCE</text>
  <rect x="48" y="156" width="620" height="756" rx="28" fill="#121212" stroke="#2D2D2D"/>
  <rect x="700" y="156" width="652" height="756" rx="28" fill="#121212" stroke="#2D2D2D"/>
  <text x="88" y="198" fill="#7E7E7E" font-family="Arial, sans-serif" font-size="13" font-weight="700" letter-spacing="1.7">API REQUEST</text>
  <text x="88" y="238" fill="#F3F3F3" font-family="Arial, sans-serif" font-size="30" font-weight="700">Guard request wrapper</text>
  <rect x="88" y="284" width="540" height="288" rx="22" fill="#090909" stroke="#2D2D2D"/>
  <text x="122" y="334" fill="#8D8D8D" font-family="Courier New, monospace" font-size="18">await umai.guard({</text>
  <text x="122" y="370" fill="#8D8D8D" font-family="Courier New, monospace" font-size="18">  phase: ["PRE_LLM", "POST_LLM"],</text>
  <text x="122" y="406" fill="#8D8D8D" font-family="Courier New, monospace" font-size="18">  project: "claims-copilot",</text>
  <text x="122" y="442" fill="#8D8D8D" font-family="Courier New, monospace" font-size="18">  input,</text>
  <text x="122" y="478" fill="#8D8D8D" font-family="Courier New, monospace" font-size="18">});</text>
  <rect x="88" y="612" width="256" height="118" rx="20" fill="#171717"/>
  <rect x="372" y="612" width="256" height="118" rx="20" fill="#171717"/>
  <rect x="88" y="756" width="540" height="116" rx="20" fill="#171717"/>
  <text x="118" y="648" fill="#7E7E7E" font-family="Arial, sans-serif" font-size="12" font-weight="700" letter-spacing="1.4">PRE_LLM</text>
  <text x="118" y="694" fill="#F3F3F3" font-family="Arial, sans-serif" font-size="24" font-weight="700">Input inspection</text>
  <text x="402" y="648" fill="#7E7E7E" font-family="Arial, sans-serif" font-size="12" font-weight="700" letter-spacing="1.4">POST_LLM</text>
  <text x="402" y="694" fill="#F3F3F3" font-family="Arial, sans-serif" font-size="24" font-weight="700">Output inspection</text>
  <text x="118" y="792" fill="#7E7E7E" font-family="Arial, sans-serif" font-size="12" font-weight="700" letter-spacing="1.4">DECISIONS</text>
  <text x="118" y="838" fill="#F3F3F3" font-family="Arial, sans-serif" font-size="20" font-weight="700">ALLOW, BLOCK, FLAG, ALLOW_WITH_WARNINGS</text>
  <text x="740" y="198" fill="#7E7E7E" font-family="Arial, sans-serif" font-size="13" font-weight="700" letter-spacing="1.7">POLICY RESULTS</text>
  <text x="740" y="238" fill="#F3F3F3" font-family="Arial, sans-serif" font-size="30" font-weight="700">Runtime decisions</text>
  <rect x="740" y="286" width="572" height="76" rx="22" fill="#171717"/>
  <rect x="740" y="382" width="572" height="76" rx="22" fill="#171717"/>
  <rect x="740" y="478" width="572" height="76" rx="22" fill="#171717"/>
  <rect x="740" y="574" width="572" height="76" rx="22" fill="#171717"/>
  <text x="772" y="332" fill="#F3F3F3" font-family="Arial, sans-serif" font-size="15" font-weight="700">Prompt injection detection</text>
  <text x="1110" y="332" fill="#9E9E9E" font-family="Arial, sans-serif" font-size="14">BLOCK</text>
  <text x="772" y="428" fill="#F3F3F3" font-family="Arial, sans-serif" font-size="15" font-weight="700">PII and secret pattern scan</text>
  <text x="1110" y="428" fill="#9E9E9E" font-family="Arial, sans-serif" font-size="14">FLAG</text>
  <text x="772" y="524" fill="#F3F3F3" font-family="Arial, sans-serif" font-size="15" font-weight="700">Output review before user delivery</text>
  <text x="1110" y="524" fill="#9E9E9E" font-family="Arial, sans-serif" font-size="14">ALLOW</text>
  <text x="772" y="620" fill="#F3F3F3" font-family="Arial, sans-serif" font-size="15" font-weight="700">Audit write and correlation id</text>
  <text x="1110" y="620" fill="#9E9E9E" font-family="Arial, sans-serif" font-size="14">LOGGED</text>
  <rect x="740" y="706" width="572" height="166" rx="22" fill="#090909" stroke="#2D2D2D"/>
  <text x="774" y="748" fill="#7E7E7E" font-family="Arial, sans-serif" font-size="12" font-weight="700" letter-spacing="1.5">WHY IT MATTERS</text>
  <text x="774" y="796" fill="#F3F3F3" font-family="Arial, sans-serif" font-size="22" font-weight="700">One API path.</text>
  <text x="774" y="832" fill="#F3F3F3" font-family="Arial, sans-serif" font-size="22" font-weight="700">No model change.</text>
  <text x="774" y="868" fill="#F3F3F3" font-family="Arial, sans-serif" font-size="22" font-weight="700">No re-architecture.</text>
</svg>
